<mxfile host="app.diagrams.net" agent="Mozilla/5.0 (Windows NT 10.0; Win64; x64) AppleWebKit/537.36 (KHTML, like Gecko) Chrome/137.0.0.0 Safari/537.36" version="27.1.6">
  <diagram name="Page-1" id="J6IhjaPAJkhYAJl55BEQ">
    <mxGraphModel>
      <root>
        <mxCell id="0" />
        <mxCell id="1" parent="0" />
        <mxCell id="2" value="Caching Layer" style="whiteSpace=wrap;strokeWidth=2;" vertex="1" parent="1">
          <mxGeometry x="8" y="262" width="1031" height="256" as="geometry" />
        </mxCell>
        <mxCell id="3" value="Notification System" style="whiteSpace=wrap;strokeWidth=2;" vertex="1" parent="1">
          <mxGeometry x="1280" y="414" width="506" height="256" as="geometry" />
        </mxCell>
        <mxCell id="4" value="Shopping Cart Application" style="whiteSpace=wrap;strokeWidth=2;" vertex="1" parent="1">
          <mxGeometry x="850" y="8" width="245" height="54" as="geometry" />
        </mxCell>
        <mxCell id="5" value="API Gateway" style="whiteSpace=wrap;strokeWidth=2;" vertex="1" parent="1">
          <mxGeometry x="898" y="135" width="150" height="54" as="geometry" />
        </mxCell>
        <mxCell id="6" value="User Service" style="whiteSpace=wrap;strokeWidth=2;" vertex="1" parent="1">
          <mxGeometry x="210" y="439" width="148" height="54" as="geometry" />
        </mxCell>
        <mxCell id="7" value="Cart Service" style="whiteSpace=wrap;strokeWidth=2;" vertex="1" parent="1">
          <mxGeometry x="466" y="439" width="147" height="54" as="geometry" />
        </mxCell>
        <mxCell id="8" value="Product Service" style="whiteSpace=wrap;strokeWidth=2;" vertex="1" parent="1">
          <mxGeometry x="764" y="439" width="171" height="54" as="geometry" />
        </mxCell>
        <mxCell id="9" value="Order Service" style="whiteSpace=wrap;strokeWidth=2;" vertex="1" parent="1">
          <mxGeometry x="1207" y="287" width="157" height="54" as="geometry" />
        </mxCell>
        <mxCell id="10" value="User Database" style="whiteSpace=wrap;strokeWidth=2;" vertex="1" parent="1">
          <mxGeometry x="204" y="591" width="162" height="54" as="geometry" />
        </mxCell>
        <mxCell id="11" value="Cart Database" style="whiteSpace=wrap;strokeWidth=2;" vertex="1" parent="1">
          <mxGeometry x="459" y="591" width="161" height="54" as="geometry" />
        </mxCell>
        <mxCell id="12" value="Product Database" style="whiteSpace=wrap;strokeWidth=2;" vertex="1" parent="1">
          <mxGeometry x="757" y="591" width="185" height="54" as="geometry" />
        </mxCell>
        <mxCell id="13" value="Order Database" style="whiteSpace=wrap;strokeWidth=2;" vertex="1" parent="1">
          <mxGeometry x="1074" y="439" width="171" height="54" as="geometry" />
        </mxCell>
        <mxCell id="14" value="Auth Service" style="whiteSpace=wrap;strokeWidth=2;" vertex="1" parent="1">
          <mxGeometry x="1837" y="287" width="150" height="54" as="geometry" />
        </mxCell>
        <mxCell id="15" value="Identity Provider" style="whiteSpace=wrap;strokeWidth=2;" vertex="1" parent="1">
          <mxGeometry x="1821" y="439" width="180" height="54" as="geometry" />
        </mxCell>
        <mxCell id="16" value="Notification Service" style="whiteSpace=wrap;strokeWidth=2;" vertex="1" parent="1">
          <mxGeometry x="1531" y="439" width="201" height="54" as="geometry" />
        </mxCell>
        <mxCell id="17" value="SMTP Server" style="whiteSpace=wrap;strokeWidth=2;" vertex="1" parent="1">
          <mxGeometry x="1315" y="591" width="147" height="54" as="geometry" />
        </mxCell>
        <mxCell id="18" value="Push Notification Service" style="whiteSpace=wrap;strokeWidth=2;" vertex="1" parent="1">
          <mxGeometry x="1512" y="591" width="239" height="54" as="geometry" />
        </mxCell>
        <mxCell id="19" value="Redis Cache" style="whiteSpace=wrap;strokeWidth=2;" vertex="1" parent="1">
          <mxGeometry x="172" y="287" width="146" height="54" as="geometry" />
        </mxCell>
        <mxCell id="20" value="Uses" style="curved=1;startArrow=none;endArrow=block;exitX=0.5;exitY=1;entryX=0.5;entryY=0;" edge="1" parent="1" source="4" target="5">
          <mxGeometry relative="1" as="geometry">
            <Array as="points" />
          </mxGeometry>
        </mxCell>
        <mxCell id="21" value="Routes requests to" style="curved=1;startArrow=none;endArrow=block;exitX=0;exitY=0.68;entryX=1;entryY=0.16;" edge="1" parent="1" source="5" target="6">
          <mxGeometry relative="1" as="geometry">
            <Array as="points">
              <mxPoint x="492" y="226" />
              <mxPoint x="492" y="414" />
            </Array>
          </mxGeometry>
        </mxCell>
        <mxCell id="22" value="Routes requests to" style="curved=1;startArrow=none;endArrow=block;exitX=0;exitY=0.8;entryX=0.98;entryY=0;" edge="1" parent="1" source="5" target="7">
          <mxGeometry relative="1" as="geometry">
            <Array as="points">
              <mxPoint x="676" y="226" />
              <mxPoint x="676" y="414" />
            </Array>
          </mxGeometry>
        </mxCell>
        <mxCell id="23" value="Routes requests to" style="curved=1;startArrow=none;endArrow=block;exitX=0.15;exitY=1;entryX=0.5;entryY=0;" edge="1" parent="1" source="5" target="8">
          <mxGeometry relative="1" as="geometry">
            <Array as="points">
              <mxPoint x="850" y="226" />
            </Array>
          </mxGeometry>
        </mxCell>
        <mxCell id="24" value="Routes requests to" style="curved=1;startArrow=none;endArrow=block;exitX=1;exitY=0.78;entryX=0.5;entryY=0;" edge="1" parent="1" source="5" target="9">
          <mxGeometry relative="1" as="geometry">
            <Array as="points">
              <mxPoint x="1285" y="226" />
            </Array>
          </mxGeometry>
        </mxCell>
        <mxCell id="25" value="Fetches user data" style="curved=1;startArrow=none;endArrow=block;exitX=0.5;exitY=1;entryX=0.5;entryY=0;" edge="1" parent="1" source="6" target="10">
          <mxGeometry relative="1" as="geometry">
            <Array as="points" />
          </mxGeometry>
        </mxCell>
        <mxCell id="26" value="Manages cart items" style="curved=1;startArrow=none;endArrow=block;exitX=0.5;exitY=1;entryX=0.5;entryY=0;" edge="1" parent="1" source="7" target="11">
          <mxGeometry relative="1" as="geometry">
            <Array as="points" />
          </mxGeometry>
        </mxCell>
        <mxCell id="27" value="Fetches product info" style="curved=1;startArrow=none;endArrow=block;exitX=0.5;exitY=1;entryX=0.5;entryY=0;" edge="1" parent="1" source="8" target="12">
          <mxGeometry relative="1" as="geometry">
            <Array as="points" />
          </mxGeometry>
        </mxCell>
        <mxCell id="28" value="Handles orders" style="curved=1;startArrow=none;endArrow=block;exitX=0.16;exitY=1;entryX=0.5;entryY=0;" edge="1" parent="1" source="9" target="13">
          <mxGeometry relative="1" as="geometry">
            <Array as="points">
              <mxPoint x="1160" y="378" />
            </Array>
          </mxGeometry>
        </mxCell>
        <mxCell id="29" value="Authentication" style="curved=1;startArrow=none;endArrow=block;exitX=1;exitY=0.59;entryX=0.5;entryY=0;" edge="1" parent="1" source="5" target="14">
          <mxGeometry relative="1" as="geometry">
            <Array as="points">
              <mxPoint x="1911" y="226" />
            </Array>
          </mxGeometry>
        </mxCell>
        <mxCell id="30" value="Validates tokens" style="curved=1;startArrow=none;endArrow=block;exitX=0.5;exitY=1;entryX=0.5;entryY=0;" edge="1" parent="1" source="14" target="15">
          <mxGeometry relative="1" as="geometry">
            <Array as="points" />
          </mxGeometry>
        </mxCell>
        <mxCell id="31" value="Sends emails" style="curved=1;startArrow=none;endArrow=block;exitX=0;exitY=0.9;entryX=0.5;entryY=0;" edge="1" parent="1" source="16" target="17">
          <mxGeometry relative="1" as="geometry">
            <Array as="points">
              <mxPoint x="1389" y="518" />
            </Array>
          </mxGeometry>
        </mxCell>
        <mxCell id="32" value="Sends push notifications" style="curved=1;startArrow=none;endArrow=block;exitX=0.5;exitY=1;entryX=0.5;entryY=0;" edge="1" parent="1" source="16" target="18">
          <mxGeometry relative="1" as="geometry">
            <Array as="points" />
          </mxGeometry>
        </mxCell>
        <mxCell id="33" value="Triggers notifications" style="curved=1;startArrow=none;endArrow=block;exitX=1;exitY=0.77;entryX=0.5;entryY=0;" edge="1" parent="1" source="9" target="16">
          <mxGeometry relative="1" as="geometry">
            <Array as="points">
              <mxPoint x="1632" y="378" />
            </Array>
          </mxGeometry>
        </mxCell>
        <mxCell id="34" value="Updates inventory" style="curved=1;startArrow=none;endArrow=block;exitX=0;exitY=0.77;entryX=0.77;entryY=0;" edge="1" parent="1" source="9" target="8">
          <mxGeometry relative="1" as="geometry">
            <Array as="points">
              <mxPoint x="938" y="378" />
              <mxPoint x="938" y="414" />
            </Array>
          </mxGeometry>
        </mxCell>
        <mxCell id="35" value="Caches user sessions" style="curved=1;startArrow=none;endArrow=block;exitX=0.1;exitY=1;entryX=0;entryY=0.09;" edge="1" parent="1" source="19" target="6">
          <mxGeometry relative="1" as="geometry">
            <Array as="points">
              <mxPoint x="110" y="378" />
              <mxPoint x="110" y="414" />
            </Array>
          </mxGeometry>
        </mxCell>
        <mxCell id="36" value="Caches products" style="curved=1;startArrow=none;endArrow=block;exitX=0.56;exitY=1;entryX=0;entryY=0.36;" edge="1" parent="1" source="19" target="8">
          <mxGeometry relative="1" as="geometry">
            <Array as="points">
              <mxPoint x="266" y="378" />
              <mxPoint x="266" y="414" />
            </Array>
          </mxGeometry>
        </mxCell>
        <mxCell id="37" value="Caches cart data" style="curved=1;startArrow=none;endArrow=block;exitX=0.98;exitY=1;entryX=0.04;entryY=0;" edge="1" parent="1" source="19" target="7">
          <mxGeometry relative="1" as="geometry">
            <Array as="points">
              <mxPoint x="409" y="378" />
              <mxPoint x="409" y="414" />
            </Array>
          </mxGeometry>
        </mxCell>
      </root>
    </mxGraphModel>
  </diagram>
</mxfile>
